G04 #@! TF.FileFunction,Legend,Top*
%FSLAX46Y46*%
G04 Gerber Fmt 4.6, Leading zero omitted, Abs format (unit mm)*
G04 Created by KiCad (PCBNEW 4.0.7) date 03/16/20 13:41:23*
%MOMM*%
%LPD*%
G01*
G04 APERTURE LIST*
%ADD10C,0.100000*%
%ADD11C,0.300000*%
%ADD12C,0.200000*%
%ADD13C,0.125000*%
%ADD14C,0.120000*%
%ADD15C,0.254000*%
%ADD16C,0.500000*%
%ADD17C,0.150000*%
G04 APERTURE END LIST*
D10*
D11*
X114771714Y-83064048D02*
X113320286Y-83064048D01*
X114046000Y-83064048D02*
X114046000Y-80524048D01*
X113804095Y-80886905D01*
X113562190Y-81128810D01*
X113320286Y-81249762D01*
D12*
X117475000Y-80645000D02*
X115189000Y-80645000D01*
X117475000Y-82931000D02*
X117475000Y-80645000D01*
X115189000Y-82931000D02*
X117475000Y-82931000D01*
X115189000Y-80645000D02*
X115189000Y-82931000D01*
D13*
X133000715Y-60777381D02*
X132429286Y-60777381D01*
X132715000Y-60777381D02*
X132715000Y-59777381D01*
X132619762Y-59920238D01*
X132524524Y-60015476D01*
X132429286Y-60063095D01*
D11*
X114009714Y-129031998D02*
X114106476Y-129128760D01*
X114203238Y-129419045D01*
X114203238Y-129612569D01*
X114106476Y-129902855D01*
X113912952Y-130096379D01*
X113719429Y-130193140D01*
X113332381Y-130289902D01*
X113042095Y-130289902D01*
X112655048Y-130193140D01*
X112461524Y-130096379D01*
X112268000Y-129902855D01*
X112171238Y-129612569D01*
X112171238Y-129419045D01*
X112268000Y-129128760D01*
X112364762Y-129031998D01*
X114203238Y-128161140D02*
X112171238Y-128161140D01*
X112171238Y-127387045D01*
X112268000Y-127193521D01*
X112364762Y-127096760D01*
X112558286Y-126999998D01*
X112848571Y-126999998D01*
X113042095Y-127096760D01*
X113138857Y-127193521D01*
X113235619Y-127387045D01*
X113235619Y-128161140D01*
X114203238Y-125161521D02*
X114203238Y-126129140D01*
X112171238Y-126129140D01*
X114203238Y-124484188D02*
X112171238Y-124484188D01*
X112171238Y-124000379D01*
X112268000Y-123710093D01*
X112461524Y-123516569D01*
X112655048Y-123419808D01*
X113042095Y-123323046D01*
X113332381Y-123323046D01*
X113719429Y-123419808D01*
X113912952Y-123516569D01*
X114106476Y-123710093D01*
X114203238Y-124000379D01*
X114203238Y-124484188D01*
X113622667Y-121000760D02*
X113622667Y-120033141D01*
X114203238Y-121194284D02*
X112171238Y-120516951D01*
X114203238Y-119839618D01*
X112171238Y-119452570D02*
X114203238Y-118775237D01*
X112171238Y-118097904D01*
X112268000Y-116356190D02*
X112171238Y-116549713D01*
X112171238Y-116839999D01*
X112268000Y-117130285D01*
X112461524Y-117323809D01*
X112655048Y-117420570D01*
X113042095Y-117517332D01*
X113332381Y-117517332D01*
X113719429Y-117420570D01*
X113912952Y-117323809D01*
X114106476Y-117130285D01*
X114203238Y-116839999D01*
X114203238Y-116646475D01*
X114106476Y-116356190D01*
X114009714Y-116259428D01*
X113332381Y-116259428D01*
X113332381Y-116646475D01*
X114203238Y-112679238D02*
X113235619Y-113356571D01*
X114203238Y-113840380D02*
X112171238Y-113840380D01*
X112171238Y-113066285D01*
X112268000Y-112872761D01*
X112364762Y-112776000D01*
X112558286Y-112679238D01*
X112848571Y-112679238D01*
X113042095Y-112776000D01*
X113138857Y-112872761D01*
X113235619Y-113066285D01*
X113235619Y-113840380D01*
X114106476Y-111034285D02*
X114203238Y-111227809D01*
X114203238Y-111614857D01*
X114106476Y-111808380D01*
X113912952Y-111905142D01*
X113138857Y-111905142D01*
X112945333Y-111808380D01*
X112848571Y-111614857D01*
X112848571Y-111227809D01*
X112945333Y-111034285D01*
X113138857Y-110937523D01*
X113332381Y-110937523D01*
X113525905Y-111905142D01*
X112848571Y-110066666D02*
X114880571Y-110066666D01*
X112945333Y-110066666D02*
X112848571Y-109873143D01*
X112848571Y-109486095D01*
X112945333Y-109292571D01*
X113042095Y-109195809D01*
X113235619Y-109099047D01*
X113816190Y-109099047D01*
X114009714Y-109195809D01*
X114106476Y-109292571D01*
X114203238Y-109486095D01*
X114203238Y-109873143D01*
X114106476Y-110066666D01*
X114203238Y-107937905D02*
X114106476Y-108131429D01*
X113912952Y-108228190D01*
X112171238Y-108228190D01*
X114203238Y-106292952D02*
X113138857Y-106292952D01*
X112945333Y-106389714D01*
X112848571Y-106583238D01*
X112848571Y-106970286D01*
X112945333Y-107163809D01*
X114106476Y-106292952D02*
X114203238Y-106486476D01*
X114203238Y-106970286D01*
X114106476Y-107163809D01*
X113912952Y-107260571D01*
X113719429Y-107260571D01*
X113525905Y-107163809D01*
X113429143Y-106970286D01*
X113429143Y-106486476D01*
X113332381Y-106292952D01*
X114106476Y-104454476D02*
X114203238Y-104648000D01*
X114203238Y-105035048D01*
X114106476Y-105228572D01*
X114009714Y-105325333D01*
X113816190Y-105422095D01*
X113235619Y-105422095D01*
X113042095Y-105325333D01*
X112945333Y-105228572D01*
X112848571Y-105035048D01*
X112848571Y-104648000D01*
X112945333Y-104454476D01*
X114106476Y-102809524D02*
X114203238Y-103003048D01*
X114203238Y-103390096D01*
X114106476Y-103583619D01*
X113912952Y-103680381D01*
X113138857Y-103680381D01*
X112945333Y-103583619D01*
X112848571Y-103390096D01*
X112848571Y-103003048D01*
X112945333Y-102809524D01*
X113138857Y-102712762D01*
X113332381Y-102712762D01*
X113525905Y-103680381D01*
X114203238Y-101841905D02*
X112848571Y-101841905D01*
X113042095Y-101841905D02*
X112945333Y-101745144D01*
X112848571Y-101551620D01*
X112848571Y-101261334D01*
X112945333Y-101067810D01*
X113138857Y-100971048D01*
X114203238Y-100971048D01*
X113138857Y-100971048D02*
X112945333Y-100874286D01*
X112848571Y-100680763D01*
X112848571Y-100390477D01*
X112945333Y-100196953D01*
X113138857Y-100100191D01*
X114203238Y-100100191D01*
X114106476Y-98358477D02*
X114203238Y-98552001D01*
X114203238Y-98939049D01*
X114106476Y-99132572D01*
X113912952Y-99229334D01*
X113138857Y-99229334D01*
X112945333Y-99132572D01*
X112848571Y-98939049D01*
X112848571Y-98552001D01*
X112945333Y-98358477D01*
X113138857Y-98261715D01*
X113332381Y-98261715D01*
X113525905Y-99229334D01*
X112848571Y-97390858D02*
X114203238Y-97390858D01*
X113042095Y-97390858D02*
X112945333Y-97294097D01*
X112848571Y-97100573D01*
X112848571Y-96810287D01*
X112945333Y-96616763D01*
X113138857Y-96520001D01*
X114203238Y-96520001D01*
X112848571Y-95842668D02*
X112848571Y-95068573D01*
X112171238Y-95552382D02*
X113912952Y-95552382D01*
X114106476Y-95455621D01*
X114203238Y-95262097D01*
X114203238Y-95068573D01*
D14*
X113957000Y-61646000D02*
X112357000Y-61646000D01*
X112357000Y-61646000D02*
X112357000Y-64246000D01*
X113957000Y-61646000D02*
X113957000Y-64246000D01*
X135547000Y-61646000D02*
X133947000Y-61646000D01*
X133947000Y-61646000D02*
X133947000Y-64246000D01*
X135547000Y-61646000D02*
X135547000Y-64246000D01*
D15*
X123952000Y-83058000D02*
G75*
G03X125222000Y-81788000I0J1270000D01*
G01*
X122682000Y-81788000D02*
G75*
G03X123952000Y-83058000I1270000J0D01*
G01*
X122682000Y-81788000D02*
X117602000Y-81788000D01*
X117602000Y-81788000D02*
X117602000Y-130048000D01*
X117602000Y-130048000D02*
X130302000Y-130048000D01*
X130302000Y-130048000D02*
X130302000Y-81788000D01*
X130302000Y-81788000D02*
X125222000Y-81788000D01*
X132080000Y-59055000D02*
X132080000Y-61595000D01*
X132080000Y-61595000D02*
X116840000Y-61595000D01*
X116840000Y-61595000D02*
X116840000Y-59055000D01*
X116840000Y-59055000D02*
X132080000Y-59055000D01*
D14*
X129930000Y-56480000D02*
X129930000Y-55280000D01*
X131690000Y-55280000D02*
X131690000Y-56480000D01*
X127390000Y-56480000D02*
X127390000Y-55280000D01*
X129150000Y-55280000D02*
X129150000Y-56480000D01*
X124850000Y-56480000D02*
X124850000Y-55280000D01*
X126610000Y-55280000D02*
X126610000Y-56480000D01*
X122310000Y-56480000D02*
X122310000Y-55280000D01*
X124070000Y-55280000D02*
X124070000Y-56480000D01*
X114037000Y-67472000D02*
X114037000Y-68672000D01*
X112277000Y-68672000D02*
X112277000Y-67472000D01*
X135627000Y-67472000D02*
X135627000Y-68672000D01*
X133867000Y-68672000D02*
X133867000Y-67472000D01*
D16*
X116952000Y-63874000D02*
G75*
G03X116952000Y-63874000I-500000J0D01*
G01*
D17*
X113609381Y-59539095D02*
X112609381Y-59539095D01*
X112609381Y-59301000D01*
X112657000Y-59158142D01*
X112752238Y-59062904D01*
X112847476Y-59015285D01*
X113037952Y-58967666D01*
X113180810Y-58967666D01*
X113371286Y-59015285D01*
X113466524Y-59062904D01*
X113561762Y-59158142D01*
X113609381Y-59301000D01*
X113609381Y-59539095D01*
X113609381Y-58015285D02*
X113609381Y-58586714D01*
X113609381Y-58301000D02*
X112609381Y-58301000D01*
X112752238Y-58396238D01*
X112847476Y-58491476D01*
X112895095Y-58586714D01*
X135199381Y-60174095D02*
X134199381Y-60174095D01*
X134199381Y-59936000D01*
X134247000Y-59793142D01*
X134342238Y-59697904D01*
X134437476Y-59650285D01*
X134627952Y-59602666D01*
X134770810Y-59602666D01*
X134961286Y-59650285D01*
X135056524Y-59697904D01*
X135151762Y-59793142D01*
X135199381Y-59936000D01*
X135199381Y-60174095D01*
X134294619Y-59221714D02*
X134247000Y-59174095D01*
X134199381Y-59078857D01*
X134199381Y-58840761D01*
X134247000Y-58745523D01*
X134294619Y-58697904D01*
X134389857Y-58650285D01*
X134485095Y-58650285D01*
X134627952Y-58697904D01*
X135199381Y-59269333D01*
X135199381Y-58650285D01*
X115363667Y-59777381D02*
X115363667Y-60491667D01*
X115316047Y-60634524D01*
X115220809Y-60729762D01*
X115077952Y-60777381D01*
X114982714Y-60777381D01*
X115792238Y-59872619D02*
X115839857Y-59825000D01*
X115935095Y-59777381D01*
X116173191Y-59777381D01*
X116268429Y-59825000D01*
X116316048Y-59872619D01*
X116363667Y-59967857D01*
X116363667Y-60063095D01*
X116316048Y-60205952D01*
X115744619Y-60777381D01*
X116363667Y-60777381D01*
D13*
X132306190Y-55963333D02*
X132068095Y-56130000D01*
X132306190Y-56249047D02*
X131806190Y-56249047D01*
X131806190Y-56058571D01*
X131830000Y-56010952D01*
X131853810Y-55987143D01*
X131901429Y-55963333D01*
X131972857Y-55963333D01*
X132020476Y-55987143D01*
X132044286Y-56010952D01*
X132068095Y-56058571D01*
X132068095Y-56249047D01*
X132306190Y-55487143D02*
X132306190Y-55772857D01*
X132306190Y-55630000D02*
X131806190Y-55630000D01*
X131877619Y-55677619D01*
X131925238Y-55725238D01*
X131949048Y-55772857D01*
X129766190Y-55963333D02*
X129528095Y-56130000D01*
X129766190Y-56249047D02*
X129266190Y-56249047D01*
X129266190Y-56058571D01*
X129290000Y-56010952D01*
X129313810Y-55987143D01*
X129361429Y-55963333D01*
X129432857Y-55963333D01*
X129480476Y-55987143D01*
X129504286Y-56010952D01*
X129528095Y-56058571D01*
X129528095Y-56249047D01*
X129313810Y-55772857D02*
X129290000Y-55749047D01*
X129266190Y-55701428D01*
X129266190Y-55582381D01*
X129290000Y-55534762D01*
X129313810Y-55510952D01*
X129361429Y-55487143D01*
X129409048Y-55487143D01*
X129480476Y-55510952D01*
X129766190Y-55796666D01*
X129766190Y-55487143D01*
X127226190Y-55963333D02*
X126988095Y-56130000D01*
X127226190Y-56249047D02*
X126726190Y-56249047D01*
X126726190Y-56058571D01*
X126750000Y-56010952D01*
X126773810Y-55987143D01*
X126821429Y-55963333D01*
X126892857Y-55963333D01*
X126940476Y-55987143D01*
X126964286Y-56010952D01*
X126988095Y-56058571D01*
X126988095Y-56249047D01*
X126726190Y-55796666D02*
X126726190Y-55487143D01*
X126916667Y-55653809D01*
X126916667Y-55582381D01*
X126940476Y-55534762D01*
X126964286Y-55510952D01*
X127011905Y-55487143D01*
X127130952Y-55487143D01*
X127178571Y-55510952D01*
X127202381Y-55534762D01*
X127226190Y-55582381D01*
X127226190Y-55725238D01*
X127202381Y-55772857D01*
X127178571Y-55796666D01*
X124686190Y-55963333D02*
X124448095Y-56130000D01*
X124686190Y-56249047D02*
X124186190Y-56249047D01*
X124186190Y-56058571D01*
X124210000Y-56010952D01*
X124233810Y-55987143D01*
X124281429Y-55963333D01*
X124352857Y-55963333D01*
X124400476Y-55987143D01*
X124424286Y-56010952D01*
X124448095Y-56058571D01*
X124448095Y-56249047D01*
X124352857Y-55534762D02*
X124686190Y-55534762D01*
X124162381Y-55653809D02*
X124519524Y-55772857D01*
X124519524Y-55463333D01*
D17*
X113609381Y-72937666D02*
X113133190Y-73271000D01*
X113609381Y-73509095D02*
X112609381Y-73509095D01*
X112609381Y-73128142D01*
X112657000Y-73032904D01*
X112704619Y-72985285D01*
X112799857Y-72937666D01*
X112942714Y-72937666D01*
X113037952Y-72985285D01*
X113085571Y-73032904D01*
X113133190Y-73128142D01*
X113133190Y-73509095D01*
X112609381Y-72032904D02*
X112609381Y-72509095D01*
X113085571Y-72556714D01*
X113037952Y-72509095D01*
X112990333Y-72413857D01*
X112990333Y-72175761D01*
X113037952Y-72080523D01*
X113085571Y-72032904D01*
X113180810Y-71985285D01*
X113418905Y-71985285D01*
X113514143Y-72032904D01*
X113561762Y-72080523D01*
X113609381Y-72175761D01*
X113609381Y-72413857D01*
X113561762Y-72509095D01*
X113514143Y-72556714D01*
X135199381Y-71667666D02*
X134723190Y-72001000D01*
X135199381Y-72239095D02*
X134199381Y-72239095D01*
X134199381Y-71858142D01*
X134247000Y-71762904D01*
X134294619Y-71715285D01*
X134389857Y-71667666D01*
X134532714Y-71667666D01*
X134627952Y-71715285D01*
X134675571Y-71762904D01*
X134723190Y-71858142D01*
X134723190Y-72239095D01*
X134199381Y-70810523D02*
X134199381Y-71001000D01*
X134247000Y-71096238D01*
X134294619Y-71143857D01*
X134437476Y-71239095D01*
X134627952Y-71286714D01*
X135008905Y-71286714D01*
X135104143Y-71239095D01*
X135151762Y-71191476D01*
X135199381Y-71096238D01*
X135199381Y-70905761D01*
X135151762Y-70810523D01*
X135104143Y-70762904D01*
X135008905Y-70715285D01*
X134770810Y-70715285D01*
X134675571Y-70762904D01*
X134627952Y-70810523D01*
X134580333Y-70905761D01*
X134580333Y-71096238D01*
X134627952Y-71191476D01*
X134675571Y-71239095D01*
X134770810Y-71286714D01*
X130556095Y-78192381D02*
X130556095Y-79001905D01*
X130603714Y-79097143D01*
X130651333Y-79144762D01*
X130746571Y-79192381D01*
X130937048Y-79192381D01*
X131032286Y-79144762D01*
X131079905Y-79097143D01*
X131127524Y-79001905D01*
X131127524Y-78192381D01*
X132127524Y-79192381D02*
X131556095Y-79192381D01*
X131841809Y-79192381D02*
X131841809Y-78192381D01*
X131746571Y-78335238D01*
X131651333Y-78430476D01*
X131556095Y-78478095D01*
M02*
