G04 #@! TF.FileFunction,Soldermask,Top*
%FSLAX46Y46*%
G04 Gerber Fmt 4.6, Leading zero omitted, Abs format (unit mm)*
G04 Created by KiCad (PCBNEW 4.0.7) date 03/16/20 13:41:23*
%MOMM*%
%LPD*%
G01*
G04 APERTURE LIST*
%ADD10C,0.100000*%
%ADD11R,1.300000X1.200000*%
%ADD12C,1.924000*%
%ADD13R,1.924000X1.924000*%
%ADD14R,1.700000X1.900000*%
%ADD15C,1.000000*%
%ADD16R,2.432000X0.603200*%
%ADD17R,0.603200X2.432000*%
G04 APERTURE END LIST*
D10*
D11*
X113157000Y-62196000D03*
X113157000Y-64296000D03*
X134747000Y-62196000D03*
X134747000Y-64296000D03*
D12*
X116332000Y-127508000D03*
X116332000Y-130048000D03*
X131572000Y-130048000D03*
X131572000Y-127508000D03*
X131572000Y-112268000D03*
X131572000Y-114808000D03*
X131572000Y-117348000D03*
X131572000Y-119888000D03*
X131572000Y-122428000D03*
X131572000Y-124968000D03*
X116332000Y-124968000D03*
X116332000Y-122428000D03*
X116332000Y-119888000D03*
X116332000Y-117348000D03*
X116332000Y-114808000D03*
X116332000Y-112268000D03*
D13*
X116332000Y-81788000D03*
D12*
X116332000Y-84328000D03*
X116332000Y-86868000D03*
X116332000Y-89408000D03*
X116332000Y-91948000D03*
X116332000Y-94488000D03*
X116332000Y-97028000D03*
X116332000Y-99568000D03*
X116332000Y-102108000D03*
X116332000Y-104648000D03*
X116332000Y-107188000D03*
X116332000Y-109728000D03*
X131572000Y-109728000D03*
X131572000Y-107188000D03*
X131572000Y-104648000D03*
X131572000Y-102108000D03*
X131572000Y-99568000D03*
X131572000Y-97028000D03*
X131572000Y-94488000D03*
X131572000Y-91948000D03*
X131572000Y-89408000D03*
X131572000Y-86868000D03*
X131572000Y-84328000D03*
X131572000Y-81788000D03*
X123190000Y-60325000D03*
X125730000Y-60325000D03*
D13*
X130810000Y-60325000D03*
D12*
X128270000Y-60325000D03*
X120650000Y-60325000D03*
X118110000Y-60325000D03*
D14*
X130810000Y-54530000D03*
X130810000Y-57230000D03*
X128270000Y-54530000D03*
X128270000Y-57230000D03*
X125730000Y-54530000D03*
X125730000Y-57230000D03*
X123190000Y-54530000D03*
X123190000Y-57230000D03*
X113157000Y-69422000D03*
X113157000Y-66722000D03*
X134747000Y-69422000D03*
X134747000Y-66722000D03*
D15*
X120650000Y-74930000D03*
X119380000Y-76200000D03*
X125095000Y-76073000D03*
X125095000Y-74803000D03*
X125095000Y-73533000D03*
X125095000Y-72263000D03*
X125095000Y-70993000D03*
X125095000Y-69723000D03*
X125095000Y-68453000D03*
X125095000Y-67183000D03*
X127000000Y-66040000D03*
X122047000Y-76454000D03*
X124460000Y-77089000D03*
X114427000Y-58420000D03*
X113157000Y-71247000D03*
X118491000Y-73406000D03*
X118491000Y-66421000D03*
X115062000Y-59182000D03*
X122428000Y-66040000D03*
X129286000Y-69850000D03*
X129286000Y-77089000D03*
X113157000Y-60325000D03*
X129286000Y-65913000D03*
X134747000Y-60833000D03*
D16*
X116452000Y-77374000D03*
X116452000Y-76874000D03*
X116452000Y-75874000D03*
X116452000Y-76374000D03*
X116452000Y-74374000D03*
X116452000Y-73874000D03*
X116452000Y-74874000D03*
X116452000Y-75374000D03*
X116452000Y-71874000D03*
X116452000Y-69874000D03*
X116452000Y-69374000D03*
X116452000Y-70374000D03*
X116452000Y-72374000D03*
X116452000Y-71374000D03*
X116452000Y-72874000D03*
X116452000Y-73374000D03*
X116452000Y-65374000D03*
X116452000Y-67374000D03*
X116452000Y-66874000D03*
X116452000Y-65874000D03*
X116452000Y-66374000D03*
X116452000Y-67874000D03*
X116452000Y-70874000D03*
X116452000Y-68374000D03*
X116452000Y-68874000D03*
X131452000Y-68874000D03*
X131452000Y-68374000D03*
X131452000Y-70874000D03*
X131452000Y-67874000D03*
X131452000Y-66374000D03*
X131452000Y-65874000D03*
X131452000Y-66874000D03*
X131452000Y-67374000D03*
X131452000Y-65374000D03*
X131452000Y-73374000D03*
X131452000Y-72874000D03*
X131452000Y-71374000D03*
X131452000Y-72374000D03*
X131452000Y-70374000D03*
X131452000Y-69374000D03*
X131452000Y-69874000D03*
X131452000Y-71874000D03*
X131452000Y-75374000D03*
X131452000Y-74874000D03*
X131452000Y-73874000D03*
X131452000Y-74374000D03*
X131452000Y-76374000D03*
X131452000Y-75874000D03*
X131452000Y-76874000D03*
X131452000Y-77374000D03*
D17*
X117952000Y-78874000D03*
X118452000Y-78874000D03*
X119452000Y-78874000D03*
X118952000Y-78874000D03*
X120952000Y-78874000D03*
X121452000Y-78874000D03*
X120452000Y-78874000D03*
X119952000Y-78874000D03*
X123952000Y-78874000D03*
X124452000Y-78874000D03*
X125452000Y-78874000D03*
X124952000Y-78874000D03*
X122952000Y-78874000D03*
X123452000Y-78874000D03*
X122452000Y-78874000D03*
X121952000Y-78874000D03*
X129952000Y-78874000D03*
X127952000Y-78874000D03*
X128452000Y-78874000D03*
X129452000Y-78874000D03*
X128952000Y-78874000D03*
X126952000Y-78874000D03*
X127452000Y-78874000D03*
X126452000Y-78874000D03*
X125952000Y-78874000D03*
X125952000Y-63874000D03*
X126452000Y-63874000D03*
X127452000Y-63874000D03*
X126952000Y-63874000D03*
X128952000Y-63874000D03*
X129452000Y-63874000D03*
X128452000Y-63874000D03*
X127952000Y-63874000D03*
X129952000Y-63874000D03*
X121952000Y-63874000D03*
X122452000Y-63874000D03*
X123452000Y-63874000D03*
X122952000Y-63874000D03*
X124952000Y-63874000D03*
X125452000Y-63874000D03*
X124452000Y-63874000D03*
X123952000Y-63874000D03*
X119952000Y-63874000D03*
X120452000Y-63874000D03*
X121452000Y-63874000D03*
X120952000Y-63874000D03*
X118952000Y-63874000D03*
X119452000Y-63874000D03*
X118452000Y-63874000D03*
X117952000Y-63874000D03*
M02*
