M48
;DRILL file {KiCad 4.0.7} date 03/16/20 13:41:18
;FORMAT={-:-/ absolute / inch / decimal}
FMAT,2
INCH,TZ
T1C0.012
T2C0.040
%
G90
G05
M72
T1
X4.455Y-2.375
X4.455Y-2.805
X4.505Y-2.3
X4.53Y-2.33
X4.665Y-2.615
X4.665Y-2.89
X4.7Y-3.
X4.75Y-2.95
X4.805Y-3.01
X4.82Y-2.6
X4.9Y-3.035
X4.925Y-2.645
X4.925Y-2.695
X4.925Y-2.745
X4.925Y-2.795
X4.925Y-2.845
X4.925Y-2.895
X4.925Y-2.945
X4.925Y-2.995
X5.Y-2.6
X5.09Y-2.595
X5.09Y-2.75
X5.09Y-3.035
X5.305Y-2.395
T2
X4.58Y-3.22
X4.58Y-3.32
X4.58Y-3.42
X4.58Y-3.52
X4.58Y-3.62
X4.58Y-3.72
X4.58Y-3.82
X4.58Y-3.92
X4.58Y-4.02
X4.58Y-4.12
X4.58Y-4.22
X4.58Y-4.32
X4.58Y-4.42
X4.58Y-4.52
X4.58Y-4.62
X4.58Y-4.72
X4.58Y-4.82
X4.58Y-4.92
X4.58Y-5.02
X4.58Y-5.12
X4.65Y-2.375
X4.75Y-2.375
X4.85Y-2.375
X4.95Y-2.375
X5.05Y-2.375
X5.15Y-2.375
X5.18Y-3.22
X5.18Y-3.32
X5.18Y-3.42
X5.18Y-3.52
X5.18Y-3.62
X5.18Y-3.72
X5.18Y-3.82
X5.18Y-3.92
X5.18Y-4.02
X5.18Y-4.12
X5.18Y-4.22
X5.18Y-4.32
X5.18Y-4.42
X5.18Y-4.52
X5.18Y-4.62
X5.18Y-4.72
X5.18Y-4.82
X5.18Y-4.92
X5.18Y-5.02
X5.18Y-5.12
T0
M30
