M48
;DRILL file {KiCad 4.0.7} date 03/16/20 14:44:36
;FORMAT={-:-/ absolute / inch / decimal}
FMAT,2
INCH,TZ
T1C0.020
T2C0.030
T3C0.040
%
G90
G05
M72
T1
X3.65Y-2.375
X3.7Y-3.1
X3.7Y-3.2
X3.7Y-4.6
X3.75Y-3.
X3.75Y-3.3
X3.8Y-1.25
X3.875Y-3.675
X3.925Y-4.05
X4.Y-1.45
X4.Y-2.65
X4.Y-3.4
X4.05Y-2.7
X4.05Y-3.3
X4.1Y-1.7
X4.1Y-2.375
X4.1Y-3.95
X4.15Y-1.95
X4.15Y-3.3
X4.15Y-4.55
X4.2Y-1.75
X4.2Y-3.45
X4.25Y-1.5
X4.25Y-3.35
X4.25Y-3.5
X4.25Y-4.025
X4.3Y-2.7
X4.3Y-4.625
X4.425Y-2.5
X4.475Y-2.65
X4.5Y-1.7
X4.5Y-4.
X4.525Y-2.9
X4.525Y-3.05
X4.525Y-3.4
X4.525Y-4.55
X4.55Y-1.6
X4.55Y-2.05
X4.55Y-3.7
X4.55Y-4.1
X4.55Y-4.35
X4.575Y-3.575
X4.6Y-1.8
X4.6Y-1.95
X4.6Y-3.2
X4.625Y-1.65
X4.675Y-3.5
X4.675Y-3.575
X4.775Y-1.45
X4.775Y-2.8
X4.775Y-3.7
X4.8Y-2.05
X4.825Y-3.775
X4.85Y-3.95
X4.85Y-4.5
X4.9Y-1.85
X4.9Y-3.2
X4.9Y-3.625
X4.95Y-2.5
X5.Y-2.2
X5.Y-3.65
X5.05Y-1.575
X5.05Y-1.75
X5.05Y-1.95
X5.05Y-3.55
X5.1Y-2.625
X5.1Y-2.925
X5.1Y-3.85
X5.15Y-1.7
X5.15Y-2.
X5.2Y-1.85
X5.2Y-2.375
X5.25Y-1.75
X5.275Y-4.
X5.275Y-4.1
X5.3Y-1.9
X5.3Y-2.35
X5.3Y-2.5
X5.3Y-2.9
X5.325Y-1.6
X5.35Y-1.95
X5.35Y-2.375
X5.35Y-2.45
X5.35Y-2.8
X5.4Y-2.2
X5.4Y-3.4
X5.45Y-2.15
X5.45Y-3.3
X5.475Y-4.3
X5.475Y-4.55
X5.5Y-2.1
X5.5Y-3.5
X5.525Y-3.95
X5.525Y-4.5
X5.55Y-3.6
X5.6Y-1.425
X5.6Y-2.05
X5.6Y-2.375
X5.6Y-3.7
X5.65Y-1.6
X5.65Y-3.
X5.65Y-3.55
X5.65Y-3.8
X5.7Y-1.225
X5.825Y-1.7
X5.85Y-3.85
X5.925Y-3.1
X5.925Y-3.7
X5.975Y-1.4
X5.975Y-1.7
X5.975Y-1.775
X5.975Y-2.25
X5.975Y-4.3
X6.025Y-1.9
X6.025Y-3.3
X6.025Y-4.
X6.075Y-2.3
X6.075Y-3.2
X6.075Y-4.5
X6.125Y-4.25
X6.125Y-4.4
X6.2Y-1.75
X6.2Y-4.55
X6.275Y-3.475
X6.4Y-1.7
X6.4Y-2.8
X6.45Y-1.6
X6.45Y-2.375
X6.475Y-3.3
X6.5Y-2.1
X6.65Y-2.5
X6.65Y-3.7
X6.65Y-4.3
X6.675Y-2.9
X6.675Y-3.1
X6.7Y-3.95
X6.725Y-2.8
X6.725Y-3.45
X6.775Y-2.45
X6.775Y-2.9
X6.825Y-1.75
X6.825Y-2.05
X6.825Y-2.8
X6.875Y-1.7
X6.875Y-2.85
X6.875Y-4.1
X6.925Y-1.5
X6.925Y-2.1
X6.925Y-2.7
X6.925Y-4.
X7.Y-1.4
X7.Y-1.5
X7.Y-1.975
X7.075Y-3.475
X7.15Y-1.85
X7.15Y-2.2
X7.2Y-2.15
X7.2Y-3.3
X7.29Y-1.45
X7.375Y-3.475
X7.45Y-1.35
X7.5Y-2.9
X7.5Y-3.05
X7.55Y-2.1
X7.55Y-3.3
X7.6Y-1.8
X7.65Y-2.95
X7.65Y-4.2
X7.7Y-1.4
X7.7Y-1.975
X7.75Y-1.5
X7.75Y-2.05
X7.75Y-3.625
X7.775Y-1.4
X7.8Y-1.6
X8.125Y-2.25
X8.225Y-2.3
T2
X5.9Y-1.3
X5.9Y-1.4
T3
X3.575Y-1.175
X3.575Y-1.3
X3.575Y-1.4
X3.575Y-1.5
X3.575Y-1.6
X3.575Y-1.7
X3.575Y-1.8
X3.575Y-1.9
X3.575Y-2.
X3.575Y-2.575
X3.575Y-2.7
X3.575Y-2.8
X3.575Y-2.9
X3.575Y-3.
X3.575Y-3.1
X3.575Y-3.2
X3.575Y-3.3
X3.575Y-3.4
X3.575Y-3.775
X3.575Y-3.9
X3.575Y-4.
X3.575Y-4.1
X3.575Y-4.2
X3.575Y-4.3
X3.575Y-4.4
X3.575Y-4.5
X3.575Y-4.6
X3.875Y-1.3
X3.875Y-1.4
X3.875Y-1.5
X3.875Y-1.6
X3.875Y-1.7
X3.875Y-1.8
X3.875Y-1.9
X3.875Y-2.
X3.875Y-2.7
X3.875Y-2.8
X3.875Y-2.9
X3.875Y-3.
X3.875Y-3.1
X3.875Y-3.2
X3.875Y-3.3
X3.875Y-3.4
X3.875Y-3.9
X3.875Y-4.
X3.875Y-4.1
X3.875Y-4.2
X3.875Y-4.3
X3.875Y-4.4
X3.875Y-4.5
X3.875Y-4.6
X3.95Y-1.175
X3.95Y-2.575
X3.95Y-3.775
X4.375Y-1.175
X4.375Y-1.3
X4.375Y-1.4
X4.375Y-1.5
X4.375Y-1.6
X4.375Y-1.7
X4.375Y-1.8
X4.375Y-1.9
X4.375Y-2.
X4.375Y-2.1
X4.375Y-2.2
X4.375Y-2.575
X4.375Y-2.7
X4.375Y-2.8
X4.375Y-2.9
X4.375Y-3.
X4.375Y-3.1
X4.375Y-3.2
X4.375Y-3.3
X4.375Y-3.4
X4.375Y-3.775
X4.375Y-3.9
X4.375Y-4.
X4.375Y-4.1
X4.375Y-4.2
X4.375Y-4.3
X4.375Y-4.4
X4.375Y-4.5
X4.375Y-4.6
X4.675Y-1.3
X4.675Y-1.4
X4.675Y-1.5
X4.675Y-1.6
X4.675Y-1.7
X4.675Y-1.8
X4.675Y-1.9
X4.675Y-2.
X4.675Y-2.1
X4.675Y-2.2
X4.675Y-2.7
X4.675Y-2.8
X4.675Y-2.9
X4.675Y-3.
X4.675Y-3.1
X4.675Y-3.2
X4.675Y-3.3
X4.675Y-3.4
X4.675Y-3.9
X4.675Y-4.
X4.675Y-4.1
X4.675Y-4.2
X4.675Y-4.3
X4.675Y-4.4
X4.675Y-4.5
X4.675Y-4.6
X4.75Y-1.175
X4.75Y-2.575
X4.75Y-3.775
X4.85Y-1.325
X4.85Y-1.425
X4.85Y-1.525
X5.175Y-2.7
X5.175Y-2.8
X5.175Y-2.9
X5.175Y-3.
X5.175Y-3.1
X5.175Y-3.2
X5.175Y-3.3
X5.175Y-3.4
X5.175Y-3.5
X5.175Y-3.6
X5.175Y-3.7
X5.175Y-3.8
X5.175Y-3.9
X5.175Y-4.
X5.175Y-4.1
X5.175Y-4.2
X5.175Y-4.3
X5.175Y-4.4
X5.175Y-4.5
X5.175Y-4.6
X5.25Y-1.325
X5.25Y-1.425
X5.25Y-1.525
X5.425Y-1.6
X5.425Y-1.7
X5.425Y-1.8
X5.425Y-1.9
X5.425Y-2.
X5.525Y-1.6
X5.525Y-1.7
X5.525Y-1.8
X5.525Y-1.9
X5.525Y-2.
X5.775Y-2.7
X5.775Y-2.8
X5.775Y-2.9
X5.775Y-3.
X5.775Y-3.1
X5.775Y-3.2
X5.775Y-3.3
X5.775Y-3.4
X5.775Y-3.5
X5.775Y-3.6
X5.775Y-3.7
X5.775Y-3.8
X5.775Y-3.9
X5.775Y-4.
X5.775Y-4.1
X5.775Y-4.2
X5.775Y-4.3
X5.775Y-4.4
X5.775Y-4.5
X5.775Y-4.6
X5.9Y-1.525
X5.9Y-1.925
X6.2Y-1.175
X6.2Y-2.575
X6.2Y-3.775
X6.275Y-1.3
X6.275Y-1.4
X6.275Y-1.5
X6.275Y-1.6
X6.275Y-1.7
X6.275Y-1.8
X6.275Y-1.9
X6.275Y-2.
X6.275Y-2.1
X6.275Y-2.2
X6.275Y-2.7
X6.275Y-2.8
X6.275Y-2.9
X6.275Y-3.
X6.275Y-3.1
X6.275Y-3.2
X6.275Y-3.3
X6.275Y-3.4
X6.275Y-3.9
X6.275Y-4.
X6.275Y-4.1
X6.275Y-4.2
X6.275Y-4.3
X6.275Y-4.4
X6.275Y-4.5
X6.275Y-4.6
X6.575Y-1.175
X6.575Y-1.3
X6.575Y-1.4
X6.575Y-1.5
X6.575Y-1.6
X6.575Y-1.7
X6.575Y-1.8
X6.575Y-1.9
X6.575Y-2.
X6.575Y-2.1
X6.575Y-2.2
X6.575Y-2.575
X6.575Y-2.7
X6.575Y-2.8
X6.575Y-2.9
X6.575Y-3.
X6.575Y-3.1
X6.575Y-3.2
X6.575Y-3.3
X6.575Y-3.4
X6.575Y-3.775
X6.575Y-3.9
X6.575Y-4.
X6.575Y-4.1
X6.575Y-4.2
X6.575Y-4.3
X6.575Y-4.4
X6.575Y-4.5
X6.575Y-4.6
X7.Y-1.175
X7.Y-2.575
X7.Y-3.775
X7.075Y-1.3
X7.075Y-1.4
X7.075Y-1.5
X7.075Y-1.6
X7.075Y-1.7
X7.075Y-1.8
X7.075Y-1.9
X7.075Y-2.7
X7.075Y-2.8
X7.075Y-2.9
X7.075Y-3.
X7.075Y-3.1
X7.075Y-3.2
X7.075Y-3.3
X7.075Y-3.4
X7.075Y-3.9
X7.075Y-4.
X7.075Y-4.1
X7.075Y-4.2
X7.075Y-4.3
X7.075Y-4.4
X7.075Y-4.5
X7.075Y-4.6
X7.375Y-1.175
X7.375Y-1.3
X7.375Y-1.4
X7.375Y-1.5
X7.375Y-1.6
X7.375Y-1.7
X7.375Y-1.8
X7.375Y-1.9
X7.375Y-2.575
X7.375Y-2.7
X7.375Y-2.8
X7.375Y-2.9
X7.375Y-3.
X7.375Y-3.1
X7.375Y-3.2
X7.375Y-3.3
X7.375Y-3.4
X7.375Y-3.775
X7.375Y-3.9
X7.375Y-4.
X7.375Y-4.1
X7.375Y-4.2
X7.375Y-4.3
X7.375Y-4.4
X7.375Y-4.5
X7.375Y-4.6
X7.775Y-3.725
X7.8Y-1.175
X7.8Y-3.85
X7.875Y-1.3
X7.875Y-1.4
X7.875Y-1.5
X7.875Y-1.6
X7.875Y-1.7
X7.875Y-1.8
X7.875Y-1.9
X7.875Y-3.975
X7.875Y-4.075
X7.875Y-4.175
X7.875Y-4.275
X7.875Y-4.375
X7.875Y-4.475
X7.875Y-4.575
X8.175Y-1.175
X8.175Y-1.3
X8.175Y-1.4
X8.175Y-1.5
X8.175Y-1.6
X8.175Y-1.7
X8.175Y-1.8
X8.175Y-1.9
X8.175Y-3.725
X8.175Y-3.85
X8.175Y-3.975
X8.175Y-4.075
X8.175Y-4.175
X8.175Y-4.275
X8.175Y-4.375
X8.175Y-4.475
X8.175Y-4.575
T0
M30
