G04 #@! TF.FileFunction,Soldermask,Bot*
%FSLAX46Y46*%
G04 Gerber Fmt 4.6, Leading zero omitted, Abs format (unit mm)*
G04 Created by KiCad (PCBNEW 4.0.7) date 03/16/20 14:44:43*
%MOMM*%
%LPD*%
G01*
G04 APERTURE LIST*
%ADD10C,0.100000*%
%ADD11C,1.924000*%
%ADD12R,1.924000X1.924000*%
%ADD13C,2.305000*%
%ADD14C,1.416000*%
G04 APERTURE END LIST*
D10*
D11*
X146685000Y-116840000D03*
X146685000Y-114300000D03*
X146685000Y-111760000D03*
X146685000Y-109220000D03*
X146685000Y-106680000D03*
X146685000Y-104140000D03*
X146685000Y-101600000D03*
X146685000Y-99060000D03*
X131445000Y-116840000D03*
X131445000Y-114300000D03*
X131445000Y-111760000D03*
X131445000Y-106680000D03*
X131445000Y-104140000D03*
X131445000Y-101600000D03*
X131445000Y-109220000D03*
X131445000Y-99060000D03*
D12*
X131445000Y-68580000D03*
D11*
X131445000Y-71120000D03*
X131445000Y-73660000D03*
X131445000Y-76200000D03*
X131445000Y-78740000D03*
X131445000Y-81280000D03*
X131445000Y-83820000D03*
X131445000Y-86360000D03*
X131445000Y-88900000D03*
X131445000Y-91440000D03*
X131445000Y-93980000D03*
X131445000Y-96520000D03*
X146685000Y-96520000D03*
X146685000Y-93980000D03*
X146685000Y-91440000D03*
X146685000Y-88900000D03*
X146685000Y-86360000D03*
X146685000Y-83820000D03*
X146685000Y-81280000D03*
X146685000Y-78740000D03*
X146685000Y-76200000D03*
X146685000Y-73660000D03*
X146685000Y-71120000D03*
X146685000Y-68580000D03*
X90805000Y-76200000D03*
X90805000Y-73660000D03*
X90805000Y-71120000D03*
D12*
X90805000Y-68580000D03*
D11*
X90805000Y-78740000D03*
X90805000Y-81280000D03*
X90805000Y-83820000D03*
X90805000Y-86360000D03*
X98425000Y-86360000D03*
X98425000Y-83820000D03*
X98425000Y-81280000D03*
X98425000Y-78740000D03*
X98425000Y-76200000D03*
X98425000Y-73660000D03*
X98425000Y-71120000D03*
X98425000Y-68580000D03*
D12*
X137795000Y-40640000D03*
D11*
X137795000Y-43180000D03*
X137795000Y-45720000D03*
X137795000Y-48260000D03*
X137795000Y-50800000D03*
X140335000Y-45720000D03*
X140335000Y-43180000D03*
X140335000Y-40640000D03*
X140335000Y-48260000D03*
X140335000Y-50800000D03*
X90805000Y-106680000D03*
X90805000Y-104140000D03*
X90805000Y-101600000D03*
D12*
X90805000Y-99060000D03*
D11*
X90805000Y-109220000D03*
X90805000Y-111760000D03*
X90805000Y-114300000D03*
X90805000Y-116840000D03*
X98425000Y-116840000D03*
X98425000Y-114300000D03*
X98425000Y-111760000D03*
X98425000Y-109220000D03*
X98425000Y-106680000D03*
X98425000Y-104140000D03*
X98425000Y-101600000D03*
X98425000Y-99060000D03*
X111125000Y-76200000D03*
X111125000Y-73660000D03*
X111125000Y-71120000D03*
D12*
X111125000Y-68580000D03*
D11*
X111125000Y-78740000D03*
X111125000Y-81280000D03*
X111125000Y-83820000D03*
X111125000Y-86360000D03*
X118745000Y-86360000D03*
X118745000Y-83820000D03*
X118745000Y-81280000D03*
X118745000Y-78740000D03*
X118745000Y-76200000D03*
X118745000Y-73660000D03*
X118745000Y-71120000D03*
X118745000Y-68580000D03*
D12*
X159385000Y-33020000D03*
D11*
X159385000Y-35560000D03*
X159385000Y-38100000D03*
X159385000Y-40640000D03*
X159385000Y-43180000D03*
X159385000Y-45720000D03*
X159385000Y-48260000D03*
X159385000Y-50800000D03*
X159385000Y-53340000D03*
X159385000Y-55880000D03*
X167005000Y-55880000D03*
X167005000Y-53340000D03*
X167005000Y-50800000D03*
X167005000Y-48260000D03*
X167005000Y-45720000D03*
X167005000Y-43180000D03*
X167005000Y-40640000D03*
X167005000Y-38100000D03*
X167005000Y-35560000D03*
X167005000Y-33020000D03*
D12*
X111125000Y-33020000D03*
D11*
X111125000Y-35560000D03*
X111125000Y-38100000D03*
X111125000Y-40640000D03*
X111125000Y-43180000D03*
X111125000Y-45720000D03*
X111125000Y-48260000D03*
X111125000Y-50800000D03*
X111125000Y-53340000D03*
X111125000Y-55880000D03*
X118745000Y-55880000D03*
X118745000Y-53340000D03*
X118745000Y-50800000D03*
X118745000Y-48260000D03*
X118745000Y-45720000D03*
X118745000Y-43180000D03*
X118745000Y-40640000D03*
X118745000Y-38100000D03*
X118745000Y-35560000D03*
X118745000Y-33020000D03*
D13*
X100330000Y-65405000D03*
X90805000Y-65405000D03*
X120650000Y-65405000D03*
X111125000Y-65405000D03*
X167005000Y-65405000D03*
X157480000Y-65405000D03*
X187325000Y-65405000D03*
X177800000Y-65405000D03*
X100330000Y-29845000D03*
X90805000Y-29845000D03*
X187325000Y-95885000D03*
X177800000Y-95885000D03*
X167005000Y-95885000D03*
X157480000Y-95885000D03*
X120650000Y-95885000D03*
X111125000Y-95885000D03*
X100330000Y-95885000D03*
X90805000Y-95885000D03*
X167005000Y-29845000D03*
X157480000Y-29845000D03*
X120650000Y-29845000D03*
X111125000Y-29845000D03*
X207645000Y-29845000D03*
X198120000Y-29845000D03*
X187325000Y-29845000D03*
X177800000Y-29845000D03*
X207645000Y-97790000D03*
X198120000Y-97790000D03*
D12*
X149860000Y-33020000D03*
D11*
X149860000Y-35560000D03*
D13*
X149860000Y-48895000D03*
X149860000Y-38735000D03*
X197485000Y-94615000D03*
X207645000Y-94615000D03*
X123190000Y-33655000D03*
X133350000Y-33655000D03*
X123190000Y-36195000D03*
X133350000Y-36195000D03*
X123190000Y-38735000D03*
X133350000Y-38735000D03*
D11*
X159385000Y-76200000D03*
X159385000Y-73660000D03*
X159385000Y-71120000D03*
D12*
X159385000Y-68580000D03*
D11*
X159385000Y-78740000D03*
X159385000Y-81280000D03*
X159385000Y-83820000D03*
X159385000Y-86360000D03*
X167005000Y-86360000D03*
X167005000Y-83820000D03*
X167005000Y-81280000D03*
X167005000Y-78740000D03*
X167005000Y-76200000D03*
X167005000Y-73660000D03*
X167005000Y-71120000D03*
X167005000Y-68580000D03*
X179705000Y-76200000D03*
X179705000Y-73660000D03*
X179705000Y-71120000D03*
D12*
X179705000Y-68580000D03*
D11*
X179705000Y-78740000D03*
X179705000Y-81280000D03*
X179705000Y-83820000D03*
X179705000Y-86360000D03*
X187325000Y-86360000D03*
X187325000Y-83820000D03*
X187325000Y-81280000D03*
X187325000Y-78740000D03*
X187325000Y-76200000D03*
X187325000Y-73660000D03*
X187325000Y-71120000D03*
X187325000Y-68580000D03*
X90805000Y-40640000D03*
X90805000Y-38100000D03*
X90805000Y-35560000D03*
D12*
X90805000Y-33020000D03*
D11*
X90805000Y-43180000D03*
X90805000Y-45720000D03*
X90805000Y-48260000D03*
X90805000Y-50800000D03*
X98425000Y-50800000D03*
X98425000Y-48260000D03*
X98425000Y-45720000D03*
X98425000Y-43180000D03*
X98425000Y-40640000D03*
X98425000Y-38100000D03*
X98425000Y-35560000D03*
X98425000Y-33020000D03*
X179705000Y-106680000D03*
X179705000Y-104140000D03*
X179705000Y-101600000D03*
D12*
X179705000Y-99060000D03*
D11*
X179705000Y-109220000D03*
X179705000Y-111760000D03*
X179705000Y-114300000D03*
X179705000Y-116840000D03*
X187325000Y-116840000D03*
X187325000Y-114300000D03*
X187325000Y-111760000D03*
X187325000Y-109220000D03*
X187325000Y-106680000D03*
X187325000Y-104140000D03*
X187325000Y-101600000D03*
X187325000Y-99060000D03*
X159385000Y-106680000D03*
X159385000Y-104140000D03*
X159385000Y-101600000D03*
D12*
X159385000Y-99060000D03*
D11*
X159385000Y-109220000D03*
X159385000Y-111760000D03*
X159385000Y-114300000D03*
X159385000Y-116840000D03*
X167005000Y-116840000D03*
X167005000Y-114300000D03*
X167005000Y-111760000D03*
X167005000Y-109220000D03*
X167005000Y-106680000D03*
X167005000Y-104140000D03*
X167005000Y-101600000D03*
X167005000Y-99060000D03*
X111125000Y-106680000D03*
X111125000Y-104140000D03*
X111125000Y-101600000D03*
D12*
X111125000Y-99060000D03*
D11*
X111125000Y-109220000D03*
X111125000Y-111760000D03*
X111125000Y-114300000D03*
X111125000Y-116840000D03*
X118745000Y-116840000D03*
X118745000Y-114300000D03*
X118745000Y-111760000D03*
X118745000Y-109220000D03*
X118745000Y-106680000D03*
X118745000Y-104140000D03*
X118745000Y-101600000D03*
X118745000Y-99060000D03*
X200025000Y-40640000D03*
X200025000Y-38100000D03*
D12*
X200025000Y-33020000D03*
D11*
X200025000Y-35560000D03*
X200025000Y-43180000D03*
X200025000Y-45720000D03*
X200025000Y-48260000D03*
X207645000Y-48260000D03*
X207645000Y-45720000D03*
X207645000Y-43180000D03*
X207645000Y-40640000D03*
X207645000Y-38100000D03*
X207645000Y-35560000D03*
X207645000Y-33020000D03*
X179705000Y-40640000D03*
X179705000Y-38100000D03*
D12*
X179705000Y-33020000D03*
D11*
X179705000Y-35560000D03*
X179705000Y-43180000D03*
X179705000Y-45720000D03*
X179705000Y-48260000D03*
X187325000Y-48260000D03*
X187325000Y-45720000D03*
X187325000Y-43180000D03*
X187325000Y-40640000D03*
X187325000Y-38100000D03*
X187325000Y-35560000D03*
X187325000Y-33020000D03*
X200025000Y-108585000D03*
X200025000Y-106045000D03*
D12*
X200025000Y-100965000D03*
D11*
X200025000Y-103505000D03*
X200025000Y-111125000D03*
X200025000Y-113665000D03*
X200025000Y-116205000D03*
X207645000Y-116205000D03*
X207645000Y-113665000D03*
X207645000Y-111125000D03*
X207645000Y-108585000D03*
X207645000Y-106045000D03*
X207645000Y-103505000D03*
X207645000Y-100965000D03*
D14*
X172085000Y-73660000D03*
X135255000Y-40640000D03*
X142240000Y-36195000D03*
X114935000Y-115570000D03*
X114300000Y-101600000D03*
X189230000Y-34290000D03*
X151765000Y-57150000D03*
X206375000Y-57150000D03*
X154305000Y-81280000D03*
X154305000Y-58420000D03*
X208915000Y-58420000D03*
X195580000Y-35560000D03*
X162560000Y-71120000D03*
X155575000Y-107950000D03*
X155575000Y-111760000D03*
X139065000Y-109220000D03*
X139065000Y-115570000D03*
X140335000Y-100330000D03*
X140335000Y-114300000D03*
X133985000Y-101600000D03*
X133985000Y-104140000D03*
X121285000Y-93980000D03*
X115570000Y-93980000D03*
X115570000Y-104140000D03*
X123190000Y-100330000D03*
X198120000Y-40640000D03*
X151765000Y-109220000D03*
X193040000Y-45720000D03*
X181610000Y-46990000D03*
X195580000Y-50165000D03*
X177800000Y-50165000D03*
X194310000Y-106680000D03*
X194310000Y-74930000D03*
X144780000Y-31115000D03*
X181610000Y-55880000D03*
X177800000Y-38100000D03*
X177800000Y-35560000D03*
X96520000Y-31750000D03*
X143510000Y-76200000D03*
X143510000Y-40640000D03*
X196850000Y-38100000D03*
X197485000Y-35560000D03*
X133350000Y-44450000D03*
X117475000Y-41910000D03*
X130810000Y-43180000D03*
X182880000Y-83820000D03*
X182880000Y-54610000D03*
X168910000Y-109220000D03*
X168910000Y-93980000D03*
X150495000Y-93980000D03*
X173355000Y-71120000D03*
X157480000Y-115570000D03*
X164465000Y-83820000D03*
X162560000Y-43180000D03*
X174625000Y-104140000D03*
X174625000Y-72390000D03*
X175895000Y-101600000D03*
X175895000Y-68580000D03*
X179705000Y-88265000D03*
X187325000Y-88265000D03*
X174625000Y-43180000D03*
X190500000Y-73660000D03*
X190500000Y-77470000D03*
X169545000Y-73660000D03*
X169545000Y-78740000D03*
X175895000Y-38100000D03*
X191770000Y-83820000D03*
X191770000Y-53340000D03*
X175895000Y-53340000D03*
X114935000Y-73660000D03*
X114935000Y-77470000D03*
X165100000Y-53340000D03*
X154305000Y-114300000D03*
X170180000Y-100330000D03*
X153035000Y-83820000D03*
X153035000Y-48260000D03*
X153035000Y-101600000D03*
X170815000Y-71120000D03*
X170815000Y-87630000D03*
X159385000Y-88265000D03*
X168910000Y-63500000D03*
X134620000Y-63500000D03*
X134620000Y-73660000D03*
X135890000Y-71120000D03*
X135890000Y-62230000D03*
X172085000Y-62230000D03*
X137160000Y-55880000D03*
X137160000Y-86360000D03*
X138430000Y-83820000D03*
X138430000Y-54610000D03*
X139700000Y-53340000D03*
X139700000Y-88900000D03*
X142240000Y-52070000D03*
X140970000Y-91440000D03*
X163830000Y-40640000D03*
X163830000Y-60325000D03*
X142240000Y-60325000D03*
X142240000Y-93980000D03*
X150495000Y-78740000D03*
X147955000Y-43180000D03*
X151765000Y-35560000D03*
X151765000Y-43180000D03*
X151765000Y-45085000D03*
X157480000Y-44450000D03*
X196850000Y-92075000D03*
X196850000Y-52070000D03*
X173355000Y-44450000D03*
X173355000Y-52070000D03*
X107950000Y-85090000D03*
X107950000Y-38100000D03*
X106680000Y-87630000D03*
X106680000Y-44450000D03*
X143510000Y-90170000D03*
X143510000Y-96520000D03*
X128270000Y-90170000D03*
X128270000Y-49530000D03*
X116840000Y-49530000D03*
X129540000Y-97790000D03*
X125730000Y-63500000D03*
X148590000Y-97790000D03*
X112395000Y-63500000D03*
X127000000Y-92710000D03*
X127000000Y-55880000D03*
X93980000Y-78740000D03*
X95250000Y-76200000D03*
X130810000Y-50800000D03*
X135890000Y-49530000D03*
X135890000Y-60325000D03*
X129540000Y-74295000D03*
X129540000Y-66675000D03*
X134620000Y-48260000D03*
X134620000Y-59690000D03*
X132080000Y-46990000D03*
X132080000Y-60325000D03*
X124460000Y-81280000D03*
X124460000Y-46990000D03*
X121285000Y-36830000D03*
X124460000Y-92075000D03*
X122555000Y-95885000D03*
X121920000Y-52070000D03*
X115570000Y-52070000D03*
X123190000Y-114300000D03*
X115570000Y-110490000D03*
X116840000Y-81280000D03*
X93980000Y-81280000D03*
X93980000Y-116840000D03*
X95250000Y-83820000D03*
X99695000Y-102870000D03*
X98425000Y-93345000D03*
X104140000Y-100330000D03*
X104140000Y-60325000D03*
X92710000Y-60325000D03*
X118745000Y-88900000D03*
X107950000Y-102235000D03*
X107950000Y-88900000D03*
X116205000Y-90805000D03*
X118745000Y-90805000D03*
X105410000Y-83820000D03*
X109220000Y-117475000D03*
X105410000Y-115570000D03*
X105410000Y-49530000D03*
X115570000Y-40640000D03*
X116840000Y-45720000D03*
X121285000Y-71120000D03*
X114935000Y-86360000D03*
X114300000Y-43180000D03*
X128270000Y-40005000D03*
X128270000Y-44450000D03*
X109220000Y-68580000D03*
X102870000Y-68580000D03*
X102870000Y-83820000D03*
X113665000Y-67310000D03*
X101600000Y-67310000D03*
X101600000Y-86360000D03*
X104140000Y-43180000D03*
X101600000Y-36830000D03*
X185166000Y-36830000D03*
M02*
